<svg width="194" height="39" viewBox="0 0 194 39" fill="none" xmlns="http://www.w3.org/2000/svg">
<path fill-rule="evenodd" clip-rule="evenodd" d="M16.8677 9.44436C16.4781 4.7944 12.3921 1.34035 7.74441 1.72992C3.09445 2.11949 -0.359605 6.20547 0.0299679 10.8532C0.0730021 11.3764 0.075267 11.8928 0.0390277 12.4001L0.0458226 29.3375C0.274583 32.0826 1.59505 34.4721 3.54518 36.121C5.49531 37.7699 8.07283 38.6736 10.8157 38.4426L27.5197 35.6341C28.0135 35.514 28.5231 35.4302 29.0463 35.3872C33.6963 34.9976 37.1503 30.9116 36.7608 26.2639C36.3712 21.614 32.2875 18.1599 27.6375 18.5495C21.1575 19.0908 23.4791 17.0025 21.4904 26.5833C21.2458 27.7769 20.8993 28.9026 20.3965 29.9513C20.3783 29.9875 20.3602 30.0238 20.3421 30.06C20.2787 30.1914 20.2107 30.3227 20.1428 30.4496C19.991 30.7259 19.828 30.9977 19.6536 31.2649C17.6332 34.3136 14.3037 35.3894 10.3514 35.3894C5.91433 35.3894 2.03445 33.9897 2.18621 29.1517C2.23151 27.709 2.47159 24.2979 4.4489 24.2979H7.85539L8.43069 24.2617H12.3196L9.80552 25.5437C9.64244 26.3092 9.55185 26.7803 9.52467 27.607C9.48843 28.7508 10.1815 29.1925 11.4159 29.1925C12.3287 29.1925 13.1826 28.9162 13.7012 28.2616C14.1995 27.632 14.4736 26.6648 14.6321 25.8925C15.9322 19.657 17.3931 15.7183 16.8677 9.44436Z" fill="#2C57FD"/>
<path fill-rule="evenodd" clip-rule="evenodd" d="M22.8426 13.3017C26.0226 15.9902 30.7836 15.5915 33.4721 12.4115C36.1606 9.23155 35.762 4.47061 32.582 1.78211C29.402 -0.906396 24.641 -0.507764 21.9525 2.67224C19.264 5.85223 19.6626 10.6132 22.8426 13.3017Z" fill="#FF9024"/>
<path d="M48.9395 7.72094C50.1875 7.72094 51.2067 6.63829 51.2067 5.42201C51.2067 4.20799 50.1875 3.15479 48.9395 3.15479C47.6575 3.15479 46.6406 4.20573 46.6406 5.42201C46.6406 6.63602 47.6575 7.72094 48.9395 7.72094ZM46.0177 33.1066C48.9078 33.1066 50.91 31.0387 50.91 28.0829V10.2826H46.9033V27.7862C46.9033 28.9368 46.2125 29.7567 45.2272 29.7567C44.6044 29.7567 43.8161 29.6253 43.3564 29.4283L42.8649 32.4814C43.6214 32.8438 44.9328 33.1043 46.0177 33.1043V33.1066ZM61.6731 27.6548C66.5994 27.6548 70.7714 23.5824 70.7714 18.7558C70.7714 13.9269 66.5994 9.8885 61.6731 9.8885C56.7468 9.8885 52.577 13.9269 52.577 18.7558C52.577 23.5824 56.7468 27.6548 61.6731 27.6548ZM61.6731 24.2393C58.8487 24.2393 56.4841 21.7433 56.4841 18.7558C56.4841 15.8 58.8487 13.3041 61.6731 13.3041C64.4635 13.3041 66.8304 15.8 66.8304 18.7558C66.8304 21.7433 64.4658 24.2393 61.6731 24.2393ZM82.3861 9.8885C79.8561 9.8885 77.8222 11.0368 76.4746 12.9756V4.30538H72.4679V27.2607H76.4746V24.5677C77.8222 26.5065 79.8561 27.6548 82.3861 27.6548C86.8843 27.6548 90.1685 23.9765 90.1685 18.7558C90.1685 13.5668 86.8843 9.8885 82.3861 9.8885ZM81.3012 24.2393C78.4768 24.2393 76.5063 21.9403 76.5063 18.7558C76.5063 15.569 78.4768 13.3041 81.3012 13.3041C84.1596 13.3041 86.1958 15.5713 86.1958 18.7558C86.1958 21.9403 84.1596 24.2393 81.3012 24.2393ZM100.798 9.8885C98.0075 9.8885 95.772 11.3018 94.4583 13.5985V10.2826H92.4221V32.9095H94.4583V23.9448C95.772 26.2438 98.0052 27.6548 100.798 27.6548C105.165 27.6548 108.549 23.8452 108.549 18.7558C108.549 13.6982 105.167 9.8885 100.798 9.8885ZM100.436 25.784C96.9203 25.784 94.4583 22.8599 94.4583 18.7558C94.4583 14.6494 96.9203 11.7594 100.436 11.7594C103.851 11.7594 106.447 14.7468 106.447 18.7558C106.447 22.7625 103.851 25.784 100.436 25.784ZM113.153 13.7638V10.2826H111.117V27.2607H113.153V17.7705C113.153 14.2553 115.878 11.7594 119.722 11.7594V9.8885C116.603 9.8885 114.107 11.4649 113.153 13.7638ZM121.173 27.2607H123.21V10.2826H121.173V27.2607ZM144.303 9.8885C141.676 9.8885 139.443 11.3335 138.72 13.5668C137.835 11.3335 135.864 9.8885 133.302 9.8885C130.969 9.8885 129.099 11.0051 128.276 12.7786V10.2826H126.24V27.2607H128.276V16.3572C128.276 13.6642 130.247 11.7594 133.04 11.7594C135.502 11.7594 137.209 13.7638 137.209 16.62V27.2607H139.246V16.3572C139.246 13.6642 141.216 11.7594 144.009 11.7594C146.471 11.7594 148.213 13.7638 148.213 16.62V27.2607H150.249V16.3572C150.249 12.5815 147.787 9.8885 144.303 9.8885ZM160.896 25.784C157.415 25.784 154.822 23.0909 154.459 19.578H168.81C168.81 13.7321 165.789 9.8885 160.765 9.8885C156.167 9.8885 152.391 13.6982 152.391 18.7241C152.391 23.8135 156.364 27.6571 160.896 27.6571C163.392 27.6571 166.382 26.6061 167.827 25.0297L166.545 23.6504C165.363 24.9323 163.03 25.784 160.896 25.784ZM160.831 11.7616C164.412 11.7616 166.513 14.2916 166.776 17.7071H154.493C154.921 14.1919 157.515 11.7616 160.831 11.7616ZM173.188 13.7661V10.2849H171.152V27.263H173.188V17.7728C173.188 14.2576 175.915 11.7616 179.757 11.7616V9.89077C176.638 9.89077 174.142 11.4672 173.188 13.7661ZM187.254 27.6571C190.669 27.6571 193.362 25.6526 193.362 22.7648C193.362 19.809 190.932 18.7264 187.813 17.7388C184.495 16.6539 183.181 15.9654 183.181 14.4229C183.181 12.7809 184.923 11.7616 186.991 11.7616C188.567 11.7616 190.341 12.3211 192.048 13.372L193.068 11.7956C191.263 10.6133 189.061 9.89077 186.991 9.89077C183.707 9.89077 181.145 11.8296 181.145 14.654C181.145 17.0503 182.755 18.3323 186.828 19.5146C189.521 20.3345 191.326 21.125 191.326 22.9641C191.326 24.6062 189.587 25.7885 187.254 25.7885C185.349 25.7885 183.279 25.032 181.308 23.6209L180.225 25.1317C182.23 26.742 184.855 27.6616 187.254 27.6616V27.6571Z" fill="#2C57FD"/>
</svg>
